#!OML:ASF F:\VICON\USERDATA\INSTALL\rory3\rory3.ASF
:FULLY-SPECIFIED
:DEGREES
311
root 0.309575 16.0041 15.6617 -0.504781 0.947921 5.78106
lowerback 13.3399 -0.122203 -9.37298
upperback -4.40989 -1.76322 1.06219
thorax -12.1483 -0.055821 6.91011
lowerneck -9.26389 -4.85296 -4.18229
upperneck 18.8489 -6.59059 2.96396
head 7.5582 -3.18798 1.04275
rclavicle -7.30534e-015 1.66979e-014
rhumerus -54.4198 -9.18918 -76.8219
rradius 21.1809
rwrist 3.64258
rhand -6.89802 18.2766
rfingers 7.12502
rthumb 18.9689 -10.8184
lclavicle -7.30534e-015 1.66979e-014
lhumerus -32.4891 1.7662 86.9851
lradius 30.2577
lwrist 4.68412
lhand -6.11183 19.0711
lfingers 7.12502
lthumb 19.7249 48.0903
rfemur -33.2591 3.12183 15.5761
rtibia 47.2529
rfoot -7.56965 -9.42754
rtoes -3.23963
lfemur 1.10609 -13.8834 -35.4116
ltibia 21.1137
lfoot -15.2333 7.54352
ltoes 12.8535
312
root 0.310472 16.0084 15.7864 -0.229334 0.96837 6.03714
lowerback 13.2569 -0.126308 -9.61818
upperback -4.46132 -1.81757 0.975558
thorax -12.1478 -0.0651397 6.96272
lowerneck -9.84857 -4.89328 -4.04683
upperneck 19.1219 -6.64115 2.88239
head 7.74711 -3.20076 0.971882
rclavicle 2.40529e-014 6.36111e-015
rhumerus -54.439 -9.52723 -76.6571
rradius 21.0824
rwrist 3.69948
rhand -6.87362 18.4704
rfingers 7.12502
rthumb 18.9924 -10.6223
lclavicle 2.40529e-014 6.36111e-015
lhumerus -32.4344 1.57578 87.0491
lradius 30.7298
lwrist 4.93265
lhand -6.27716 19.0146
lfingers 7.12502
lthumb 19.5659 48.0501
rfemur -33.3823 4.17696 14.9445
rtibia 44.5899
rfoot -7.35918 -10.397
rtoes -4.58741
lfemur 2.0684 -13.9564 -35.7323
ltibia 19.8537
lfoot -15.2271 7.58865
ltoes 13.1815
313
root 0.308014 16.0103 15.9141 -0.119448 0.92511 6.06313
lowerback 13.2285 -0.0837969 -9.67235
upperback -4.51514 -1.77309 0.950516
thorax -12.2023 -0.0359204 6.95573
lowerneck -9.89037 -4.89102 -4.06689
upperneck 19.2079 -6.65751 2.98741
head 7.78804 -3.19917 1.00602
rclavicle -4.02539e-015 1.98785e-014
rhumerus -54.61 -9.67059 -76.6697
rradius 20.9988
rwrist 3.74298
rhand -7.02286 18.7207
rfingers 7.12502
rthumb 18.8488 -10.3861
lclavicle -4.02539e-015 1.98785e-014
lhumerus -32.4762 1.34155 87.1117
lradius 31.1785
lwrist 5.13945
lhand -6.33014 18.5632
lfingers 7.12502
lthumb 19.515 47.6038
rfemur -33.3004 5.49705 14.5192
rtibia 42.0022
rfoot -7.52478 -11.074
rtoes -5.64152
lfemur 3.28869 -14.0528 -35.8358
ltibia 18.4289
lfoot -15.2253 7.56418
ltoes 14.442
314
root 0.306625 16.0072 16.0433 0.0192411 0.88564 6.18971
lowerback 13.0113 -0.0494276 -9.78827
upperback -4.47155 -1.72819 0.889968
thorax -12.0303 -0.0212535 6.93407
lowerneck -9.8425 -4.98924 -4.0593
upperneck 19.0907 -6.81266 3.08836
head 7.75001 -3.26439 1.02407
rclavicle -8.84592e-015 7.15625e-015
rhumerus -54.5527 -9.9156 -76.6732
rradius 20.9219
rwrist 3.78269
rhand -7.0806 18.6737
rfingers 7.12502
rthumb 18.7933 -10.4385
lclavicle -8.84592e-015 7.15625e-015
lhumerus -32.3204 1.174 87.1413
lradius 31.5993
lwrist 5.33044
lhand -6.2565 18.2923
lfingers 7.12502
lthumb 19.5858 47.3257
rfemur -33.245 6.87695 13.8822
rtibia 39.4693
rfoot -8.20235 -11.3596
rtoes -6.34581
lfemur 4.53675 -14.2148 -36.0722
ltibia 17.0045
lfoot -15.2508 7.55657
ltoes 16.134
315
root 0.305629 16.0033 16.1745 0.188473 0.953403 6.41625
lowerback 12.8518 -0.0349552 -9.94105
upperback -4.41821 -1.72717 0.781393
thorax -11.8745 -0.0262627 6.89141
lowerneck -10.033 -5.12671 -4.14036
upperneck 19.0614 -7.02129 3.29066
head 7.79332 -3.348 1.07704
rclavicle 2.41026e-015 9.54166e-015
rhumerus -54.3416 -10.4442 -76.4304
rradius 20.6737
rwrist 4.02934
rhand -6.93431 18.4167
rfingers 7.12502
rthumb 18.934 -10.6817
lclavicle 2.41026e-015 9.54166e-015
lhumerus -32.1335 0.913413 87.1867
lradius 32.109
lwrist 5.79779
lhand -5.9057 19.0336
lfingers 7.12502
lthumb 19.923 48.0324
rfemur -33.1687 8.13602 13.0692
rtibia 36.963
rfoot -8.2104 -12.376
rtoes -5.72947
lfemur 5.74937 -14.2267 -36.4285
ltibia 15.619
lfoot -15.008 7.80479
ltoes 14.0602
316
root 0.303702 16.0032 16.3074 0.39208 1.00568 6.60088
lowerback 12.6296 -0.0361993 -10.0714
upperback -4.42462 -1.7361 0.695511
thorax -11.7478 -0.0327258 6.8629
lowerneck -10.1504 -5.19654 -4.29707
upperneck 19.0896 -7.1355 3.53086
head 7.84356 -3.38902 1.16574
rclavicle 3.47873e-015 1.11319e-014
rhumerus -54.2344 -10.8592 -76.2141
rradius 20.443
rwrist 4.30009
rhand -6.74259 18.2545
rfingers 7.12502
rthumb 19.1184 -10.8258
lclavicle 3.47873e-015 1.11319e-014
lhumerus -32.0006 0.688181 87.2572
lradius 32.3048
lwrist 6.24203
lhand -5.5234 19.4009
lfingers 7.12502
lthumb 20.2905 48.361
rfemur -33.0704 9.4766 12.2165
rtibia 34.5128
rfoot -8.80429 -13.2286
rtoes -3.16773
lfemur 6.9094 -14.1787 -36.7082
ltibia 14.1715
lfoot -14.6302 7.97631
ltoes 12.275
317
root 0.303921 16.0086 16.4334 0.633316 0.853505 6.50586
lowerback 12.4962 0.00714098 -9.90618
upperback -4.55653 -1.6431 0.679081
thorax -11.8396 0.00820707 6.72831
lowerneck -9.80307 -5.21598 -4.39329
upperneck 18.8762 -7.1911 3.73521
head 7.72447 -3.41049 1.2533
rclavicle 2.63141e-014 1.03368e-014
rhumerus -54.279 -11.0261 -76.1514
rradius 20.2129
rwrist 4.49442
rhand -6.97255 18.6819
rfingers 7.12502
rthumb 18.8972 -10.4202
lclavicle 2.63141e-014 1.03368e-014
lhumerus -32.1364 0.44215 87.3316
lradius 32.3842
lwrist 6.39586
lhand -5.50117 18.9357
lfingers 7.12502
lthumb 20.3118 47.8936
rfemur -33.1441 11.0791 11.5904
rtibia 32.1407
rfoot -9.01794 -14.0944
rtoes -3.60096
lfemur 8.01268 -14.1683 -36.6705
ltibia 12.6448
lfoot -14.3597 8.13466
ltoes 11.6282
318
root 0.303903 16.007 16.5563 0.793554 0.778736 6.49883
lowerback 12.5748 0.0540144 -9.86092
upperback -4.6849 -1.58711 0.693159
thorax -12.0467 0.0492054 6.71171
lowerneck -9.34902 -5.18448 -4.41827
upperneck 18.5398 -7.15333 3.77326
head 7.53319 -3.40044 1.28829
rclavicle -7.77745e-015 3.97569e-016
rhumerus -54.3334 -11.1503 -75.9724
rradius 20.0696
rwrist 4.79129
rhand -7.15877 19.0075
rfingers 7.12502
rthumb 18.7181 -10.1119
lclavicle -7.77745e-015 3.97569e-016
lhumerus -32.3148 0.323144 87.4841
lradius 32.4697
lwrist 6.14231
lhand -5.98496 17.7517
lfingers 7.12502
lthumb 19.8468 46.7583
rfemur -33.2507 12.6931 10.7968
rtibia 29.9237
rfoot -8.99157 -14.9873
rtoes -6.14176
lfemur 9.26011 -14.067 -36.7288
ltibia 11.0065
lfoot -13.9823 8.2722
ltoes 10.9104
